<?xml version="1.0" standalone="no"?><!DOCTYPE svg PUBLIC "-//W3C//DTD SVG 1.1//EN" "http://www.w3.org/Graphics/SVG/1.1/DTD/svg11.dtd"><svg t="1622300108659" class="icon" viewBox="0 0 1024 1024" version="1.1" xmlns="http://www.w3.org/2000/svg" p-id="9102" xmlns:xlink="http://www.w3.org/1999/xlink" width="200" height="200"><defs><style type="text/css"></style></defs><path d="M280.3712 116.36736l-66.82624-66.82624a489.3696 489.3696 0 0 0-192.57344 366.87872h93.47072c7.02464-123.84256 70.59456-232.28416 165.92896-300.05248z m625.82784 300.05248h93.47072a488.32512 488.32512 0 0 0-193.04448-366.8992l-66.82624 66.82624c95.82592 67.7888 159.39584 176.2304 166.4 300.07296z m-92.0576 23.38816c0-143.48288-99.57376-263.61856-233.69728-295.38304V112.64a70.00064 70.00064 0 0 0-70.10304-70.10304A70.02112 70.02112 0 0 0 440.2176 112.64v31.78496c-134.144 31.76448-233.6768 151.90016-233.6768 295.38304v257.04448L113.0496 790.34368v46.71488h794.54208v-46.71488l-93.45024-93.4912V439.808zM510.34112 977.26464c6.53312 0 12.5952-0.45056 18.67776-1.82272a92.9792 92.9792 0 0 0 67.29728-55.15264 93.92128 93.92128 0 0 0 7.49568-36.47488h-186.96192a93.71648 93.71648 0 0 0 93.4912 93.45024z m0 0" fill="#515151" p-id="9103"></path></svg>